<svg version="1.1" viewBox="0.0 0.0 244.53543307086613 227.39632545931758" fill="none" stroke="none" stroke-linecap="square" stroke-miterlimit="10" xmlns:xlink="http://www.w3.org/1999/xlink" xmlns="http://www.w3.org/2000/svg"><clipPath id="p.0"><path d="m0 0l244.53543 0l0 227.39633l-244.53543 0l0 -227.39633z" clip-rule="nonzero"/></clipPath><g clip-path="url(#p.0)"><path fill="#000000" fill-opacity="0.0" d="m0 0l244.53543 0l0 227.39633l-244.53543 0z" fill-rule="evenodd"/><path fill="#00a6d6" d="m42.787403 113.698166l0 0c0 -43.895767 35.584545 -79.480316 79.480316 -79.480316l0 0c21.079498 0 41.295624 8.373798 56.201065 23.279247c14.905457 14.905449 23.279251 35.121582 23.279251 56.201073l0 0c0 43.895767 -35.58455 79.480316 -79.480316 79.480316l0 0c-43.895767 0 -79.480316 -35.58455 -79.480316 -79.480316z" fill-rule="evenodd"/><path stroke="#000000" stroke-width="3.0" stroke-linejoin="round" stroke-linecap="butt" d="m42.787403 113.698166l0 0c0 -43.895767 35.584545 -79.480316 79.480316 -79.480316l0 0c21.079498 0 41.295624 8.373798 56.201065 23.279247c14.905457 14.905449 23.279251 35.121582 23.279251 56.201073l0 0c0 43.895767 -35.58455 79.480316 -79.480316 79.480316l0 0c-43.895767 0 -79.480316 -35.58455 -79.480316 -79.480316z" fill-rule="evenodd"/><path fill="#000000" d="m132.85756 154.21815l-9.84375 0l0 -62.734367q-3.5625 3.390625 -9.328125 6.78125q-5.765625 3.390625 -10.359375 5.09375l0 -9.515625q8.25 -3.890625 14.421875 -9.40625q6.1875 -5.53125 8.765625 -10.71875l6.34375 0l0 80.49999z" fill-rule="nonzero"/></g></svg>