<svg version="1.1" viewBox="0.0 0.0 244.53543307086613 227.39632545931758" fill="none" stroke="none" stroke-linecap="square" stroke-miterlimit="10" xmlns:xlink="http://www.w3.org/1999/xlink" xmlns="http://www.w3.org/2000/svg"><clipPath id="p.0"><path d="m0 0l244.53543 0l0 227.39633l-244.53543 0l0 -227.39633z" clip-rule="nonzero"/></clipPath><g clip-path="url(#p.0)"><path fill="#000000" fill-opacity="0.0" d="m0 0l244.53543 0l0 227.39633l-244.53543 0z" fill-rule="evenodd"/><path fill="#0c2340" d="m42.787403 113.698166l0 0c0 -43.895767 35.584545 -79.480316 79.480316 -79.480316l0 0c21.079498 0 41.295624 8.373798 56.201065 23.279247c14.905457 14.905449 23.279251 35.121582 23.279251 56.201073l0 0c0 43.895767 -35.58455 79.480316 -79.480316 79.480316l0 0c-43.895767 0 -79.480316 -35.58455 -79.480316 -79.480316z" fill-rule="evenodd"/><path stroke="#ffffff" stroke-width="3.0" stroke-linejoin="round" stroke-linecap="butt" d="m42.787403 113.698166l0 0c0 -43.895767 35.584545 -79.480316 79.480316 -79.480316l0 0c21.079498 0 41.295624 8.373798 56.201065 23.279247c14.905457 14.905449 23.279251 35.121582 23.279251 56.201073l0 0c0 43.895767 -35.58455 79.480316 -79.480316 79.480316l0 0c-43.895767 0 -79.480316 -35.58455 -79.480316 -79.480316z" fill-rule="evenodd"/><path fill="#ffffff" d="m147.51381 144.7494l0 9.46875l-53.0 0q-0.109375 -3.5625 1.15625 -6.84375q2.015625 -5.40625 6.46875 -10.65625q4.46875 -5.25 12.890625 -12.140617q13.0625 -10.71875 17.65625 -16.984375q4.59375 -6.265625 4.59375 -11.84375q0 -5.84375 -4.1875 -9.859375q-4.171875 -4.03125 -10.90625 -4.03125q-7.109375 0 -11.375 4.265625q-4.265625 4.265625 -4.3125 11.8125l-10.125 -1.03125q1.046875 -11.328125 7.828125 -17.25q6.78125 -5.9375 18.203125 -5.9375q11.546875 0 18.265625 6.40625q6.734375 6.390625 6.734375 15.84375q0 4.8125 -1.96875 9.46875q-1.96875 4.640625 -6.546875 9.78125q-4.5625 5.140625 -15.171875 14.109367q-8.859375 7.4375 -11.375 10.09375q-2.515625 2.65625 -4.15625 5.328125l39.328125 0z" fill-rule="nonzero"/></g></svg>